@startuml

abstract Beverage{
    description
    getDescription()
    cost()
}

class HouseBlend{
     cost()
}

class DarkRoast{
     cost()
}

class Decaf{
     cost()
}

abstract CondimentDecorator{
     Beverage beverage
     getDescription()
}


Beverage <|-- HouseBlend
Beverage <|-- DarkRoast
Beverage <|-- Decaf
Beverage <|-- CondimentDecorator

class Milk{
    Beverage beverage
    cost()
    getDescription()
}

class Mocha{
    Beverage beverage
    cost()
    getDescription()
}


class Soy{
    Beverage beverage
    cost()
    getDescription()
}


class Whip{
    Beverage beverage
    cost()
    getDescription()
}

CondimentDecorator <|-- Milk
CondimentDecorator <|-- Mocha
CondimentDecorator <|-- Whip
CondimentDecorator <|-- Soy



@enduml